<svg
	width="24"
	height="24"
	viewBox="0 0 24 24"
	fill="none"
	xmlns="http://www.w3.org/2000/svg"
>
	<path
		d="M22.6666 19.334C22.6666 19.6876 22.5262 20.0267 22.2761 20.2768C22.0261 20.5268 21.6869 20.6673 21.3333 20.6673H2.66665C2.31302 20.6673 1.97389 20.5268 1.72384 20.2768C1.47379 20.0267 1.33331 19.6876 1.33331 19.334V4.66732C1.33331 4.3137 1.47379 3.97456 1.72384 3.72451C1.97389 3.47446 2.31302 3.33398 2.66665 3.33398H14.6386L13.8573 4.66732H2.66665V19.334H21.3333V10.2387H22.6666V19.334Z"
		fill="#2A373F"
	/>
	<path
		d="M10.4133 10.1486L6.40135 15.9792L3.70001 13.5899L4.40668 12.7912L6.20535 14.3819L10.4227 8.25391L14.9227 14.9306L18.478 10.2326H19.816L14.872 16.7639L10.4133 10.1486Z"
		fill="#2A373F"
	/>
	<path
		d="M17.9027 0.76248L14.0893 7.33581C14.0006 7.46603 13.9497 7.61827 13.9422 7.77566C13.9347 7.93305 13.9709 8.08945 14.0469 8.22751C14.1228 8.36558 14.2355 8.47992 14.3724 8.55787C14.5093 8.63582 14.6652 8.67434 14.8227 8.66915H22.456C22.6135 8.67434 22.7693 8.63582 22.9063 8.55787C23.0432 8.47992 23.1559 8.36558 23.2318 8.22751C23.3078 8.08945 23.344 7.93305 23.3365 7.77566C23.329 7.61827 23.2781 7.46603 23.1893 7.33581L19.376 0.76248C19.3008 0.63385 19.1932 0.527154 19.064 0.453006C18.9347 0.378858 18.7883 0.339844 18.6393 0.339844C18.4903 0.339844 18.3439 0.378858 18.2147 0.453006C18.0854 0.527154 17.9779 0.63385 17.9027 0.76248Z"
		fill="#2A373F"
	/>
</svg>