<svg
	width="22"
	height="22"
	viewBox="0 0 22 22"
	fill="none"
	xmlns="http://www.w3.org/2000/svg"
>
	<path
		d="M1.16211 15.1C0.665053 15.1 0.262109 15.5029 0.262109 16C0.262109 16.4971 0.665053 16.9 1.16211 16.9V15.1ZM4.16211 8H3.26211H4.16211ZM18.1621 8H19.0621H18.1621ZM12.8916 20.0001L13.6701 20.4517C13.8316 20.1732 13.8322 19.8298 13.6715 19.5509C13.5109 19.2719 13.2135 19.1001 12.8916 19.1001V20.0001ZM9.43164 20.0001V19.1001C9.10977 19.1001 8.81241 19.2719 8.65176 19.5509C8.49111 19.8298 8.49164 20.1732 8.65314 20.4517L9.43164 20.0001ZM21.1621 15.1H1.16211V16.9H21.1621V15.1ZM1.16211 16.9C3.31602 16.9 5.06211 15.1539 5.06211 13H3.26211C3.26211 14.1598 2.32191 15.1 1.16211 15.1V16.9ZM5.06211 13V8H3.26211V13H5.06211ZM5.06211 8C5.06211 4.63106 7.79317 1.9 11.1621 1.9V0.1C6.79906 0.1 3.26211 3.63695 3.26211 8H5.06211ZM11.1621 1.9C14.531 1.9 17.2621 4.63106 17.2621 8H19.0621C19.0621 3.63695 15.5252 0.1 11.1621 0.1V1.9ZM17.2621 8V13H19.0621V8H17.2621ZM17.2621 13C17.2621 15.1539 19.0082 16.9 21.1621 16.9V15.1C20.0023 15.1 19.0621 14.1598 19.0621 13H17.2621ZM12.1131 19.5485C11.9164 19.8877 11.5538 20.0965 11.1616 20.0965V21.8965C12.1956 21.8965 13.1513 21.346 13.6701 20.4517L12.1131 19.5485ZM11.1616 20.0965C10.7695 20.0965 10.4069 19.8877 10.2101 19.5485L8.65314 20.4517C9.17195 21.346 10.1277 21.8965 11.1616 21.8965V20.0965ZM9.43164 20.9001H12.8916V19.1001H9.43164V20.9001Z"
		fill="#2E3138"
	/>
</svg>