<svg
	width="21"
	height="20"
	viewBox="0 0 21 20"
	fill="none"
	xmlns="http://www.w3.org/2000/svg"
>
	<path
		d="M1.59998 10.2004C1.59755 8.14994 2.34523 6.16936 3.70211 4.632C5.05899 3.09464 6.93134 2.10669 8.96626 1.85435C11.0012 1.60202 13.0581 2.10272 14.7494 3.2621C16.4407 4.42148 17.6495 6.15945 18.148 8.14845C18.7192 8.42205 19.2064 8.83965 19.564 9.35565C19.4277 7.81916 18.9233 6.33813 18.0933 5.03795C17.2633 3.73778 16.1322 2.65675 14.7958 1.8864C13.4594 1.11606 11.9571 0.67908 10.416 0.612471C8.87496 0.545863 7.34053 0.851585 5.94266 1.50375C4.5448 2.15592 3.32467 3.13532 2.38558 4.35903C1.4465 5.58274 0.816123 7.01473 0.547824 8.53373C0.279525 10.0527 0.381207 11.614 0.844261 13.0854C1.30732 14.5568 2.1181 15.8949 3.20798 16.9864C3.32114 17.0957 3.4727 17.1562 3.63002 17.1549C3.78733 17.1535 3.93782 17.0904 4.04907 16.9791C4.16031 16.8679 4.22341 16.7174 4.22478 16.5601C4.22615 16.4028 4.16567 16.2512 4.05638 16.138C3.27604 15.3589 2.65733 14.4333 2.23579 13.4143C1.81424 12.3954 1.59817 11.3032 1.59998 10.2004ZM15.5644 7.95165C15.0411 6.66202 14.086 5.5943 12.8624 4.93116C11.6388 4.26803 10.2228 4.0507 8.85661 4.31636C7.49046 4.58202 6.25908 5.31416 5.37315 6.38751C4.48723 7.46086 4.00182 8.80871 3.99998 10.2004C3.99998 11.854 4.66958 13.3528 5.75198 14.4376C5.86498 14.5471 6.01646 14.6078 6.17379 14.6067C6.33111 14.6055 6.48169 14.5426 6.5931 14.4316C6.70451 14.3205 6.76782 14.1701 6.76941 14.0127C6.77099 13.8554 6.71072 13.7038 6.60158 13.5904C6.09729 13.0839 5.71249 12.4712 5.47526 11.797C5.23804 11.1227 5.15438 10.404 5.23039 9.69335C5.30641 8.98266 5.54017 8.29791 5.91463 7.68911C6.28908 7.08031 6.79477 6.56281 7.39478 6.17441C7.99478 5.786 8.67395 5.5365 9.38269 5.44411C10.0914 5.35171 10.8119 5.41877 11.4914 5.64037C12.1709 5.86198 12.7924 6.23254 13.3104 6.725C13.8284 7.21746 14.2299 7.81939 14.4856 8.48685C14.8125 8.24894 15.1772 8.068 15.5644 7.95165ZM7.59998 10.2004C7.59998 9.56393 7.85283 8.95348 8.30292 8.50339C8.75301 8.0533 9.36346 7.80045 9.99998 7.80045C10.6365 7.80045 11.2469 8.0533 11.697 8.50339C12.1471 8.95348 12.4 9.56393 12.4 10.2004C12.4 10.837 12.1471 11.4474 11.697 11.8975C11.2469 12.3476 10.6365 12.6004 9.99998 12.6004C9.36346 12.6004 8.75301 12.3476 8.30292 11.8975C7.85283 11.4474 7.59998 10.837 7.59998 10.2004ZM9.99998 9.00045C9.68172 9.00045 9.37649 9.12687 9.15145 9.35192C8.9264 9.57696 8.79998 9.88219 8.79998 10.2004C8.79998 10.5187 8.9264 10.8239 9.15145 11.049C9.37649 11.274 9.68172 11.4004 9.99998 11.4004C10.3182 11.4004 10.6235 11.274 10.8485 11.049C11.0735 10.8239 11.2 10.5187 11.2 10.2004C11.2 9.88219 11.0735 9.57696 10.8485 9.35192C10.6235 9.12687 10.3182 9.00045 9.99998 9.00045ZM19 11.4004C19 12.037 18.7471 12.6474 18.297 13.0975C17.8469 13.5476 17.2365 13.8004 16.6 13.8004C15.9635 13.8004 15.353 13.5476 14.9029 13.0975C14.4528 12.6474 14.2 12.037 14.2 11.4004C14.2 10.7639 14.4528 10.1535 14.9029 9.70339C15.353 9.2533 15.9635 9.00045 16.6 9.00045C17.2365 9.00045 17.8469 9.2533 18.297 9.70339C18.7471 10.1535 19 10.7639 19 11.4004ZM20.8 16.8004C20.8 18.2944 19.6 19.8004 16.6 19.8004C13.6 19.8004 12.4 18.3004 12.4 16.8004C12.4 16.3231 12.5896 15.8652 12.9272 15.5277C13.2647 15.1901 13.7226 15.0004 14.2 15.0004H19C19.4774 15.0004 19.9352 15.1901 20.2728 15.5277C20.6103 15.8652 20.8 16.3231 20.8 16.8004Z"
		fill="#2A373F"
	/>
</svg>