<svg
	width="21"
	height="20"
	viewBox="0 0 21 20"
	fill="none"
	xmlns="http://www.w3.org/2000/svg"
>
	<path
		d="M20.1621 3.125C20.1621 3.82852 19.6035 4.47656 18.6621 5C17.5254 5.62891 15.834 6.07422 13.8848 6.20703C13.7441 6.14062 13.5957 6.07422 13.4473 6.01172C11.9043 5.36719 9.85742 5 7.66211 5C7.33789 5 7.02148 5.00781 6.70508 5.02344L6.66211 5C5.7207 4.47656 5.16211 3.82852 5.16211 3.125C5.16211 1.39922 8.48633 0 12.6621 0C16.8027 0 20.1621 1.39922 20.1621 3.125ZM6.43945 6.29297C6.83789 6.26563 7.24414 6.25 7.66211 6.25C10.0918 6.25 12.248 6.73047 13.6191 7.47656C14.5879 8.00391 15.1621 8.66016 15.1621 9.375C15.1621 9.49609 15.1348 9.68359 15.0801 9.83203C14.9004 10.3477 14.3848 10.8203 13.7129 11.2227C13.709 11.2227 13.7012 11.2266 13.6973 11.2305C13.6855 11.2383 13.6738 11.2422 13.6621 11.25C12.2949 12.0078 10.1152 12.5 7.66211 12.5C5.33398 12.5 3.25039 12.0586 1.87461 11.3633C1.80156 11.3242 1.73047 11.2539 1.66172 11.25C0.719922 10.7266 0.162109 10.0781 0.162109 9.375C0.162109 8.01562 2.24922 6.85547 5.16211 6.42969C5.57227 6.36719 5.99805 6.32031 6.43945 6.29297ZM15.4707 7.28906C16.5762 7.11719 17.5879 6.84375 18.4473 6.48828C19.084 6.22266 19.6738 5.89453 20.1621 5.49219V6.875C20.1621 7.62891 19.5176 8.32422 18.4512 8.86328C17.877 9.15234 17.1855 9.39453 16.4043 9.58203C16.4082 9.51562 16.4121 9.44531 16.4121 9.375C16.4121 8.51953 15.998 7.81641 15.4707 7.28906ZM15.1621 13.125C15.1621 13.8281 14.6035 14.4766 13.6621 15C13.5918 15.0039 13.5215 15.0742 13.4512 15.1133C12.0723 15.8086 9.99023 16.25 7.66211 16.25C5.20898 16.25 3.03008 15.7578 1.66172 15C0.719922 14.4766 0.162109 13.8281 0.162109 13.125V11.7422C0.648438 12.1445 1.24102 12.4727 1.87812 12.7383C3.42148 13.3828 5.4668 13.75 7.66211 13.75C9.85742 13.75 11.9043 13.3828 13.4473 12.7383C13.752 12.6133 14.0449 12.4688 14.3223 12.3125C14.5605 12.1797 14.7832 12.0312 14.9941 11.875C15.0527 11.832 15.1074 11.7852 15.1621 11.7422V13.125ZM16.4121 10.8633C17.1191 10.668 17.8379 10.4922 18.4473 10.2383C19.084 9.97266 19.6738 9.64453 20.1621 9.24219V10.625C20.1621 11.0352 19.9668 11.4453 19.5801 11.832C18.9434 12.4688 17.8223 12.9922 16.4043 13.332C16.4082 13.2656 16.4121 13.1953 16.4121 13.125V10.8633ZM7.66211 17.5C9.85742 17.5 11.9043 17.1328 13.4473 16.4883C14.084 16.2227 14.6738 15.8945 15.1621 15.4922V16.875C15.1621 18.6016 11.8027 20 7.66211 20C3.51992 20 0.162109 18.6016 0.162109 16.875V15.4922C0.648438 15.8945 1.24102 16.2227 1.87812 16.4883C3.42148 17.1328 5.4668 17.5 7.66211 17.5Z"
		fill="url(#paint0_linear_2172_23)"
	/>
	<defs>
		<linearGradient
			id="paint0_linear_2172_23"
			x1="10.1621"
			y1="0"
			x2="10.1621"
			y2="20"
			gradientUnits="userSpaceOnUse"
		>
			<stop stop-color="#FFD893" />
			<stop offset="1" stop-color="#FFA300" />
		</linearGradient>
	</defs>
</svg>