<svg
	width="19"
	height="21"
	viewBox="0 0 19 21"
	fill="none"
	xmlns="http://www.w3.org/2000/svg"
>
	<path
		fill-rule="evenodd"
		clip-rule="evenodd"
		d="M12.1842 10.8752C12.0291 10.4365 11.7417 10.0566 11.3618 9.78794C10.9818 9.51927 10.5279 9.37501 10.0625 9.375V8.8125H8.9375V9.375C8.34076 9.375 7.76847 9.61205 7.34651 10.034C6.92455 10.456 6.6875 11.0283 6.6875 11.625C6.6875 12.2217 6.92455 12.794 7.34651 13.216C7.76847 13.6379 8.34076 13.875 8.9375 13.875V16.125C8.44813 16.125 8.03131 15.8128 7.87606 15.3752C7.85303 15.3036 7.81587 15.2373 7.76679 15.1804C7.7177 15.1234 7.65769 15.0768 7.59029 15.0434C7.5229 15.01 7.44949 14.9905 7.37441 14.986C7.29934 14.9814 7.22412 14.992 7.1532 15.0171C7.08229 15.0421 7.01712 15.0812 6.96155 15.1318C6.90597 15.1825 6.86113 15.2438 6.82967 15.3122C6.79821 15.3805 6.78077 15.4544 6.77837 15.5296C6.77598 15.6047 6.78869 15.6796 6.81575 15.7498C6.97091 16.1885 7.25826 16.5684 7.63824 16.8371C8.01822 17.1057 8.47214 17.25 8.9375 17.25V17.8125H10.0625V17.25C10.6592 17.25 11.2315 17.0129 11.6535 16.591C12.0754 16.169 12.3125 15.5967 12.3125 15C12.3125 14.4033 12.0754 13.831 11.6535 13.409C11.2315 12.9871 10.6592 12.75 10.0625 12.75V10.5C10.2952 10.4999 10.5221 10.572 10.7121 10.7063C10.9021 10.8406 11.0458 11.0305 11.1234 11.2498C11.1731 11.3905 11.2766 11.5057 11.4112 11.57C11.4778 11.6019 11.5501 11.6203 11.6239 11.6242C11.6976 11.6282 11.7715 11.6175 11.8411 11.5929C11.9108 11.5683 11.9749 11.5303 12.0299 11.4809C12.0848 11.4315 12.1295 11.3718 12.1613 11.3051C12.1932 11.2385 12.2116 11.1662 12.2156 11.0924C12.2195 11.0187 12.2088 10.9448 12.1842 10.8752ZM8.9375 10.5C8.63913 10.5 8.35298 10.6185 8.14201 10.8295C7.93103 11.0405 7.8125 11.3266 7.8125 11.625C7.8125 11.9234 7.93103 12.2095 8.14201 12.4205C8.35298 12.6315 8.63913 12.75 8.9375 12.75V10.5ZM10.0625 16.125C10.3609 16.125 10.647 16.0065 10.858 15.7955C11.069 15.5845 11.1875 15.2984 11.1875 15C11.1875 14.7016 11.069 14.4155 10.858 14.2045C10.647 13.9935 10.3609 13.875 10.0625 13.875V16.125Z"
		fill="#2A373F"
	/>
	<path
		fill-rule="evenodd"
		clip-rule="evenodd"
		d="M3.39855 1.84931C4.77893 1.17375 7.04355 0.375 9.52193 0.375C11.9486 0.375 14.1536 1.14056 15.5266 1.80712L15.6042 1.84481C16.0182 2.04956 16.3524 2.24306 16.5875 2.4L14.5096 5.4375C19.2999 10.3346 23 20.6233 9.52193 20.6233C-3.95614 20.6233 -0.355574 10.5214 4.4763 5.4375L2.41193 2.4C2.57111 2.29594 2.77305 2.175 3.0138 2.04675C3.13305 1.98262 3.2613 1.91681 3.39855 1.84987V1.84931ZM13.1742 5.397L14.8376 2.96531C13.2907 3.07669 11.4502 3.44006 9.6783 3.95306C8.41268 4.31869 7.00643 4.263 5.70424 4.02281C5.37609 3.96198 5.0502 3.88956 4.72718 3.80569L5.80718 5.39587C8.12186 6.21994 10.859 6.21994 13.1742 5.397ZM5.15749 6.35437C7.86593 7.40062 11.1211 7.40062 13.8296 6.35325C14.9601 7.54501 15.9058 8.89934 16.6353 10.3712C17.3958 11.9226 17.8098 13.4734 17.7423 14.8099C17.6771 16.0997 17.1697 17.2016 16.0109 18.0206C14.8032 18.8739 12.7721 19.4983 9.52137 19.4983C6.2673 19.4983 4.22655 18.8846 3.00761 18.0409C1.84043 17.232 1.32799 16.1452 1.25543 14.8729C1.17949 13.551 1.58449 12.0081 2.34218 10.446C3.06499 8.9565 4.07355 7.52269 5.15749 6.35437ZM4.51061 2.57775C4.96061 2.71162 5.43086 2.82806 5.90786 2.91637C7.11724 3.13912 8.32999 3.17175 9.36499 2.87194C10.5711 2.52057 11.7978 2.24423 13.0381 2.0445C12.0031 1.73288 10.7926 1.5 9.52137 1.5C7.58355 1.5 5.77624 2.04056 4.51061 2.57775Z"
		fill="#2A373F"
	/>
</svg>