<svg
    width="24"
    height="24"
    viewBox="0 0 24 24"
    fill="none"
    xmlns="http://www.w3.org/2000/svg"  >
    <g clip-path="url(#clip0_1605_8696)">
	    <path
		    d="M20.22 22.5L18.7792 17.4563C18.7385 17.3141 18.7407 17.1631 18.7855 17.0222C18.8303 16.8812 18.9158 16.7567 19.0313 16.6643L22.4055 13.965L21.39 9.90075L19.3365 12.4688C19.266 12.5565 19.1767 12.6274 19.0752 12.676C18.9737 12.7247 18.8626 12.75 18.75 12.75H15V11.25H18.39L21.165 7.78125C21.2524 7.67233 21.3685 7.58998 21.5002 7.54347C21.6318 7.49695 21.7739 7.48813 21.9103 7.51799C22.0467 7.54784 22.1721 7.61519 22.2723 7.71246C22.3725 7.80972 22.4436 7.93303 22.4775 8.0685L23.9775 14.0685C24.0125 14.2077 24.0068 14.354 23.961 14.49C23.9153 14.626 23.8315 14.746 23.7195 14.8358L20.3595 17.5238L21.663 22.0883L20.22 22.5ZM17.25 4.125C17.25 3.60583 17.404 3.09831 17.6924 2.66663C17.9808 2.23495 18.3908 1.8985 18.8705 1.69982C19.3501 1.50114 19.8779 1.44915 20.3871 1.55044C20.8963 1.65173 21.364 1.90173 21.7312 2.26885C22.0983 2.63596 22.3483 3.10369 22.4496 3.61289C22.5508 4.12209 22.4989 4.64989 22.3002 5.12955C22.1015 5.6092 21.7651 6.01917 21.3334 6.30761C20.9017 6.59605 20.3942 6.75 19.875 6.75C19.1791 6.74921 18.5118 6.47239 18.0197 5.98028C17.5276 5.48817 17.2508 4.82095 17.25 4.125ZM18.75 4.125C18.75 4.34751 18.816 4.56501 18.9396 4.75002C19.0632 4.93502 19.2389 5.07922 19.4445 5.16437C19.65 5.24951 19.8762 5.27179 20.0945 5.22838C20.3127 5.18498 20.5132 5.07783 20.6705 4.9205C20.8278 4.76316 20.935 4.56271 20.9784 4.34448C21.0218 4.12625 20.9995 3.90005 20.9144 3.69448C20.8292 3.48892 20.685 3.31321 20.5 3.1896C20.315 3.06598 20.0975 3 19.875 3C19.5768 3.0004 19.2908 3.11905 19.0799 3.32994C18.8691 3.54084 18.7504 3.82675 18.75 4.125Z"
		    fill="#2A373F"
	    />
	    <path
		    d="M15.003 14.25C14.6044 14.25 14.2221 14.0916 13.9402 13.8098C13.6584 13.5279 13.5 13.1456 13.5 12.747V11.253C13.5 10.8544 13.6584 10.4721 13.9402 10.1902C14.2221 9.90835 14.6044 9.75 15.003 9.75H16.5V7.5H7.5V9.75H8.997C9.39562 9.75 9.77791 9.90835 10.0598 10.1902C10.3416 10.4721 10.5 10.8544 10.5 11.253V12.747C10.5 13.1456 10.3416 13.5279 10.0598 13.8098C9.77791 14.0916 9.39562 14.25 8.997 14.25H7.5V16.5H16.5V14.25H15.003Z"
		    fill="#2A373F"
	    />
	    <path
		    d="M3.78003 22.5L5.22078 17.4563C5.26143 17.3141 5.2592 17.1631 5.21437 17.0222C5.16954 16.8813 5.0841 16.7568 4.96878 16.6643L1.59453 13.965L2.61078 9.9015L4.66428 12.4688C4.73468 12.5564 4.82385 12.6272 4.92522 12.6759C5.02659 12.7246 5.13758 12.7499 5.25003 12.75H9.00003V11.25H5.61003L2.83578 7.78125C2.74838 7.67233 2.6323 7.58998 2.50062 7.54347C2.36895 7.49695 2.2269 7.48813 2.09048 7.51799C1.95405 7.54784 1.82868 7.61519 1.72847 7.71246C1.62826 7.80972 1.55719 7.93303 1.52328 8.0685L0.0232773 14.0685C-0.0117053 14.2077 -0.00598861 14.354 0.0397477 14.49C0.0854841 14.626 0.169316 14.746 0.281277 14.8358L3.64128 17.5238L2.33703 22.0883L3.78003 22.5ZM4.12503 6.75C3.60585 6.75 3.09833 6.59605 2.66666 6.30761C2.23498 6.01917 1.89852 5.6092 1.69984 5.12955C1.50116 4.64989 1.44918 4.12209 1.55047 3.61289C1.65175 3.10369 1.90176 2.63596 2.26887 2.26885C2.63598 1.90173 3.10372 1.65173 3.61292 1.55044C4.12212 1.44915 4.64992 1.50114 5.12957 1.69982C5.60923 1.8985 6.0192 2.23495 6.30764 2.66663C6.59607 3.09831 6.75003 3.60583 6.75003 4.125C6.74923 4.82095 6.47242 5.48817 5.98031 5.98028C5.48819 6.47239 4.82098 6.74921 4.12503 6.75ZM4.12503 3C3.90252 3 3.68502 3.06598 3.50001 3.1896C3.31501 3.31321 3.17081 3.48892 3.08566 3.69448C3.00051 3.90005 2.97824 4.12625 3.02164 4.34448C3.06505 4.56271 3.1722 4.76316 3.32953 4.9205C3.48687 5.07783 3.68732 5.18498 3.90555 5.22838C4.12378 5.27179 4.34998 5.24951 4.55555 5.16437C4.76111 5.07922 4.93681 4.93502 5.06043 4.75002C5.18405 4.56501 5.25003 4.34751 5.25003 4.125C5.24963 3.82675 5.13098 3.54084 4.92008 3.32994C4.70919 3.11905 4.42327 3.0004 4.12503 3Z"
		    fill="#2A373F"
	    />
    </g>
    <defs>
	    <clipPath id="clip0_1605_8696">
		    <rect width="24" height="24" fill="white" />
	    </clipPath>
    </defs> 
</svg>