<svg
	width="24"
	height="20"
	viewBox="0 0 24 20"
	fill="none"
	xmlns="http://www.w3.org/2000/svg"
>
	<path
		fill-rule="evenodd"
		clip-rule="evenodd"
		d="M12.75 0.75C12.75 0.551088 12.671 0.360322 12.5303 0.21967C12.3897 0.0790175 12.1989 0 12 0C11.8011 0 11.6103 0.0790175 11.4697 0.21967C11.329 0.360322 11.25 0.551088 11.25 0.75V2.5H9.27599C8.92468 2.49984 8.58146 2.60542 8.29099 2.803L6.59599 3.957C6.55438 3.98518 6.50524 4.00016 6.45499 4H2.35299C2.15407 4 1.96331 4.07902 1.82266 4.21967C1.682 4.36032 1.60299 4.55109 1.60299 4.75C1.60299 4.94891 1.682 5.13968 1.82266 5.28033C1.96331 5.42098 2.15407 5.5 2.35299 5.5H3.92999L0.562986 13.18C0.499387 13.3299 0.485463 13.4962 0.523254 13.6545C0.561045 13.8129 0.648564 13.955 0.772986 14.06C0.852986 14.124 0.933986 14.185 1.08199 14.281C1.26799 14.402 1.53399 14.559 1.87399 14.714C2.55399 15.025 3.53599 15.334 4.74999 15.334C5.74201 15.3359 6.72285 15.1245 7.62599 14.714C7.96599 14.559 8.23199 14.402 8.41799 14.281C8.56799 14.184 8.64799 14.123 8.72799 14.058C8.8534 13.9542 8.94163 13.8124 8.97933 13.654C9.01704 13.4956 9.00217 13.3292 8.93699 13.18L5.56899 5.5H6.45499C6.80599 5.5 7.14899 5.394 7.43899 5.197L9.13499 4.043C9.17631 4.01501 9.22507 4.00004 9.27499 4H11.25V18.5H6.76299C6.56407 18.5 6.37331 18.579 6.23266 18.7197C6.092 18.8603 6.01299 19.0511 6.01299 19.25C6.01299 19.4489 6.092 19.6397 6.23266 19.7803C6.37331 19.921 6.56407 20 6.76299 20H17.237C17.4359 20 17.6267 19.921 17.7673 19.7803C17.908 19.6397 17.987 19.4489 17.987 19.25C17.987 19.0511 17.908 18.8603 17.7673 18.7197C17.6267 18.579 17.4359 18.5 17.237 18.5H12.75V4H14.724C14.774 4 14.824 4.015 14.864 4.043L16.561 5.197C16.851 5.394 17.194 5.5 17.545 5.5H18.431L15.063 13.18C14.9956 13.3336 14.9817 13.5053 15.0234 13.6677C15.0651 13.8301 15.16 13.9739 15.293 14.076C15.305 14.085 15.293 14.076 15.295 14.076C15.3942 14.1507 15.4977 14.2195 15.605 14.282C15.79 14.394 16.055 14.538 16.395 14.682C17.2992 15.06 18.27 15.2531 19.25 15.25C20.2304 15.2529 21.2015 15.0594 22.106 14.681C22.444 14.538 22.71 14.394 22.896 14.282C23.0029 14.2189 23.1064 14.1501 23.206 14.076C23.339 13.9739 23.4339 13.8301 23.4756 13.6677C23.5173 13.5053 23.5033 13.3336 23.436 13.18L20.07 5.5H21.648C21.8469 5.5 22.0377 5.42098 22.1783 5.28033C22.319 5.13968 22.398 4.94891 22.398 4.75C22.398 4.55109 22.319 4.36032 22.1783 4.21967C22.0377 4.07902 21.8469 4 21.648 4H17.546C17.4961 3.99996 17.4473 3.98499 17.406 3.957L15.709 2.803C15.4188 2.60561 15.0759 2.50004 14.725 2.5H12.75V0.75ZM2.19299 13.198C2.98009 13.6168 3.85839 13.835 4.74999 13.833C5.64158 13.835 6.51989 13.6168 7.30699 13.198L4.74999 7.368L2.19299 13.198ZM16.703 13.174C16.785 13.214 16.877 13.257 16.978 13.3C17.508 13.523 18.283 13.75 19.25 13.75C20.1316 13.7525 21.0023 13.5556 21.797 13.174L19.25 7.367L16.703 13.174Z"
		fill="#2A373F"
	/>
</svg>