<svg
	width="18"
	height="17"
	viewBox="0 0 18 17"
	fill="none"
	xmlns="http://www.w3.org/2000/svg"
>
	<path
		d="M15.6666 5.66602H10.99L11.9258 2.86018C12.0941 2.35352 12.0091 1.79185 11.6966 1.35852C11.3841 0.925182 10.8775 0.666016 10.3433 0.666016H8.99996C8.75246 0.666016 8.51829 0.776016 8.35913 0.966016L4.44246 5.66602H2.33329C1.41413 5.66602 0.666626 6.41352 0.666626 7.33268V14.8327C0.666626 15.7518 1.41413 16.4993 2.33329 16.4993H13.4225C13.7615 16.4982 14.0923 16.3942 14.371 16.2011C14.6497 16.0079 14.8632 15.7348 14.9833 15.4177L17.2808 9.29185C17.3157 9.19828 17.3335 9.09921 17.3333 8.99935V7.33268C17.3333 6.41352 16.5858 5.66602 15.6666 5.66602ZM2.33329 7.33268H3.99996V14.8327H2.33329V7.33268ZM15.6666 8.84852L13.4225 14.8327H5.66663V6.80102L9.38996 2.33268H10.345L9.04329 6.23518C9.00104 6.36044 8.98925 6.49398 9.00891 6.6247C9.02857 6.75543 9.07911 6.87959 9.15635 6.98688C9.23358 7.09418 9.33527 7.18151 9.453 7.24165C9.57073 7.30179 9.7011 7.33299 9.83329 7.33268H15.6666V8.84852Z"
		fill="#5D5FEF"
	/>
</svg>