<svg
	width="17"
	height="16"
	viewBox="0 0 17 16"
	fill="none"
	xmlns="http://www.w3.org/2000/svg"
>
	<g clip-path="url(#clip0_1604_8432)">
		<path
			d="M3.19609 2H14.0744C14.435 2 14.7809 2.14048 15.0359 2.39052C15.2909 2.64057 15.4342 2.97971 15.4342 3.33333V7.33333C15.4342 9.10144 14.7179 10.7971 13.4428 12.0474C12.1678 13.2976 10.4384 14 8.63525 14C7.7424 14 6.85829 13.8276 6.0334 13.4925C5.20852 13.1575 4.45901 12.6664 3.82767 12.0474C2.55262 10.7971 1.8363 9.10144 1.8363 7.33333V3.33333C1.8363 2.97971 1.97957 2.64057 2.23458 2.39052C2.48959 2.14048 2.83545 2 3.19609 2V2Z"
			stroke="#5D5FEF"
			stroke-width="2"
			stroke-linecap="round"
			stroke-linejoin="round"
		/>
		<path
			d="M5.91577 6.66602L8.63535 9.33268L11.3549 6.66602"
			stroke="#5D5FEF"
			stroke-width="2"
			stroke-linecap="round"
			stroke-linejoin="round"
		/>
	</g>
	<defs>
		<clipPath id="clip0_1604_8432">
			<rect
				width="16.3175"
				height="16"
				fill="white"
				transform="translate(0.476562)"
			/>
		</clipPath>
	</defs>
</svg>