<svg
	width="20"
	height="22"
	viewBox="0 0 20 22"
	fill="none"
	xmlns="http://www.w3.org/2000/svg"
>
	<path
		d="M9.99998 0.4375C9.49217 0.4375 8.9876 0.608125 8.55292 0.920125L7.20742 1.85938L5.65717 2.0625H5.63198L5.60679 2.08769C5.09836 2.20251 4.63288 2.45907 4.26431 2.82764C3.89574 3.19621 3.63917 3.66169 3.52435 4.17013L3.49998 4.19531V4.2205L3.29685 5.79513L2.3576 7.01388L2.3316 7.03906V7.06425C1.76367 7.97181 1.73848 9.14344 2.3576 10.0096L3.32204 11.3551L3.57635 12.7526L0.960917 16.7379L0.12323 17.9826H4.00779L4.94704 20.1658L5.53123 21.5625L6.36892 20.2926L8.93317 16.4332C9.62217 16.7159 10.3997 16.7419 11.0668 16.4332L13.631 20.2926L14.4687 21.5625L15.0529 20.1658L15.9922 17.9826H19.8767L19.039 16.7379L16.5 12.8793L16.7031 11.3559L17.6424 10.0104L17.6684 9.98519V9.96C18.2363 9.05244 18.2615 7.906 17.6424 7.03988L16.7031 5.69356L16.3984 4.17013H16.4236C16.4204 4.15062 16.4017 4.13763 16.3984 4.11894C16.2522 3.05619 15.4112 2.19331 14.342 2.0625H14.316L12.7925 1.85938L11.447 0.920125C11.0268 0.612283 10.5209 0.443536 9.99998 0.4375ZM9.99998 2.08769C10.1869 2.08769 10.3713 2.14456 10.5078 2.24044L11.9549 3.28125L12.1328 3.408L12.3359 3.434L14.1137 3.6875H14.138C14.5037 3.72813 14.7572 3.98244 14.7986 4.34806V4.39844L15.1293 6.20138L15.1537 6.37931L15.2812 6.53125L16.322 7.97831C16.5162 8.24806 16.5414 8.7055 16.2969 9.0955L15.1545 10.6953L15.1285 10.8984L14.875 12.6762V12.7006C14.8615 12.8275 14.818 12.9495 14.7482 13.0564L14.697 13.0824V13.1068C14.5763 13.2518 14.4031 13.3433 14.2152 13.3611H14.164L12.3107 13.6918L12.1076 13.7162L11.9549 13.8438L10.5078 14.8846C10.238 15.0787 9.75542 15.1039 9.36542 14.8594L8.0451 13.8438L7.89235 13.717L7.66404 13.691L5.88629 13.4375H5.86192C5.74703 13.4274 5.63627 13.3897 5.53898 13.3278C5.44169 13.2659 5.36072 13.1814 5.30292 13.0816C5.24893 12.9879 5.21438 12.8843 5.20135 12.7769V12.7266L4.87148 10.8733L4.84548 10.6701L4.71873 10.5174L3.67792 9.07031C3.48373 8.80056 3.45854 8.31794 3.7031 7.92794L4.71873 6.60763L4.84548 6.45487L4.87067 6.22656L5.09979 4.52519C5.10304 4.513 5.12173 4.513 5.12498 4.5C5.17563 4.30441 5.27768 4.12593 5.42055 3.98307C5.56341 3.8402 5.74189 3.73815 5.93748 3.6875C5.95048 3.68425 5.95048 3.66556 5.96267 3.66231L7.66404 3.43319L7.86717 3.40881L8.0451 3.28125L9.49217 2.24044C9.62867 2.14537 9.8131 2.08769 9.99998 2.08769ZM15.6111 14.4531L16.8559 16.3576H14.8994L14.6962 16.8654L14.138 18.1597L12.4115 15.5191L12.7917 15.2404L14.3924 14.9609V14.9861C14.411 14.9829 14.4232 14.9642 14.4427 14.9609C14.8704 14.8992 15.2736 14.7239 15.6103 14.4531H15.6111ZM4.38885 14.4783C4.74166 14.7991 5.18488 15.0031 5.65798 15.0625H5.68317L7.2326 15.2656L7.58767 15.5451L5.8611 18.1597L5.30292 16.8654L5.09979 16.3576H3.14492L4.38885 14.4783Z"
		fill="currentColor"
	/>
</svg>