<svg
	width="24"
	height="24"
	viewBox="0 0 24 24"
	fill="none"
	xmlns="http://www.w3.org/2000/svg"
>
	<path
		d="M20.6666 5.33398H15.3333V6.66732H20.6666V20.6673H15.3333V22.0007H22V6.66732C22 6.3137 21.8595 5.97456 21.6095 5.72451C21.3594 5.47446 21.0203 5.33398 20.6666 5.33398Z"
		fill="currentColor"
	/>
	<path
		d="M13.2534 2H4.08002C3.70518 2 3.34569 2.1489 3.08064 2.41396C2.81559 2.67901 2.66669 3.03849 2.66669 3.41333V22H14.6667V3.41333C14.6667 3.03849 14.5178 2.67901 14.2527 2.41396C13.9877 2.1489 13.6282 2 13.2534 2ZM13.3334 20.6667H11.3334V18.6667H6.00002V20.6667H4.00002V3.41333C4.00002 3.40283 4.00209 3.39242 4.00611 3.38272C4.01013 3.37301 4.01602 3.36419 4.02345 3.35676C4.03088 3.34934 4.0397 3.34344 4.04941 3.33942C4.05911 3.3354 4.06951 3.33333 4.08002 3.33333H13.2534C13.2639 3.33333 13.2743 3.3354 13.284 3.33942C13.2937 3.34344 13.3025 3.34934 13.3099 3.35676C13.3174 3.36419 13.3232 3.37301 13.3273 3.38272C13.3313 3.39242 13.3334 3.40283 13.3334 3.41333V20.6667Z"
		fill="currentColor"
	/>
	<path
		d="M5.33331 5.33398H6.66665V6.66732H5.33331V5.33398Z"
		fill="currentColor"
	/>
	<path
		d="M8 5.33398H9.33333V6.66732H8V5.33398Z"
		fill="currentColor"
	/>
	<path
		d="M10.6667 5.33398H12V6.66732H10.6667V5.33398Z"
		fill="currentColor"
	/>
	<path
		d="M5.33331 8.66602H6.66665V9.99935H5.33331V8.66602Z"
		fill="currentColor"
	/>
	<path
		d="M8 8.66602H9.33333V9.99935H8V8.66602Z"
		fill="currentColor"
	/>
	<path
		d="M10.6667 8.66602H12V9.99935H10.6667V8.66602Z"
		fill="currentColor"
	/>
	<path
		d="M5.33331 12H6.66665V13.3333H5.33331V12Z"
		fill="currentColor"
	/>
	<path d="M8 12H9.33333V13.3333H8V12Z" fill="currentColor" />
	<path
		d="M10.6667 12H12V13.3333H10.6667V12Z"
		fill="currentColor"
	/>
	<path
		d="M5.33331 15.334H6.66665V16.6673H5.33331V15.334Z"
		fill="currentColor"
	/>
	<path
		d="M8 15.334H9.33333V16.6673H8V15.334Z"
		fill="currentColor"
	/>
	<path
		d="M10.6667 15.334H12V16.6673H10.6667V15.334Z"
		fill="currentColor"
	/>
	<path
		d="M15.3333 8.66602H16.6666V9.99935H15.3333V8.66602Z"
		fill="currentColor"
	/>
	<path
		d="M18 8.66602H19.3333V9.99935H18V8.66602Z"
		fill="currentColor"
	/>
	<path
		d="M15.3333 12H16.6666V13.3333H15.3333V12Z"
		fill="currentColor"
	/>
	<path d="M18 12H19.3333V13.3333H18V12Z" fill="#2A373F" />
	<path
		d="M15.3333 15.334H16.6666V16.6673H15.3333V15.334Z"
		fill="currentColor"
	/>
	<path
		d="M18 15.334H19.3333V16.6673H18V15.334Z"
		fill="currentColor"
	/>
</svg>