<svg
	width="16"
	height="22"
	viewBox="0 0 16 22"
	fill="none"
	xmlns="http://www.w3.org/2000/svg"
>
	<path
		fill-rule="evenodd"
		clip-rule="evenodd"
		d="M12.5 13.9998H11V16.9998H8.00001V18.4998H11V21.4998H12.5V18.4998H15.5V16.9998H12.5V13.9998ZM5.83401 2.25331C5.67022 2.14378 5.48646 2.0676 5.29322 2.02909C5.09999 1.99059 4.90106 1.99052 4.7078 2.02889C4.51453 2.06727 4.33072 2.14333 4.16686 2.25274C4.00299 2.36215 3.86228 2.50277 3.75276 2.66656C3.64324 2.83035 3.56705 3.01411 3.52854 3.20734C3.49004 3.40058 3.48997 3.59951 3.52834 3.79277C3.56672 3.98603 3.64278 4.16984 3.75219 4.33371C3.8616 4.49757 4.00222 4.63828 4.16601 4.74781C4.4968 4.969 4.90191 5.04972 5.29222 4.97222C5.68253 4.89472 6.02607 4.66535 6.24726 4.33456C6.46845 4.00377 6.54917 3.59866 6.47167 3.20835C6.39418 2.81804 6.1648 2.4745 5.83401 2.25331ZM3.33351 1.00531C3.66089 0.778322 4.03021 0.618814 4.4199 0.536092C4.80959 0.45337 5.21186 0.449092 5.60323 0.523506C5.99459 0.59792 6.36721 0.749537 6.69935 0.969508C7.03149 1.18948 7.31649 1.4734 7.53772 1.8047C7.75896 2.136 7.91199 2.50804 7.98789 2.89912C8.06379 3.2902 8.06104 3.69248 7.9798 4.08248C7.89856 4.47249 7.74046 4.84241 7.51472 5.17065C7.28898 5.4989 7.00012 5.7789 6.66501 5.99431C6.00336 6.41321 5.20414 6.55679 4.43806 6.39437C3.67198 6.23196 2.99977 5.77643 2.56502 5.12509C2.13027 4.47374 1.96744 3.67822 2.11131 2.90844C2.25518 2.13866 2.69435 1.45566 3.33501 1.00531H3.33351ZM3.15501 7.23481H6.84501C7.54916 7.23481 8.22447 7.51453 8.72238 8.01244C9.22029 8.51035 9.50001 9.18566 9.50001 9.88981V10.9998H8.00001V9.88981C8.00203 9.73757 7.97353 9.58647 7.9162 9.44543C7.85887 9.30439 7.77387 9.17626 7.66621 9.06861C7.55855 8.96095 7.43042 8.87595 7.28938 8.81862C7.14834 8.76129 6.99724 8.73279 6.84501 8.73481H3.15501C3.00277 8.73279 2.85168 8.76129 2.71063 8.81862C2.56959 8.87595 2.44146 8.96095 2.33381 9.06861C2.22615 9.17626 2.14115 9.30439 2.08382 9.44543C2.02649 9.58647 1.99799 9.73757 2.00001 9.88981V13.9998H3.50001V18.9648C3.50001 19.0444 3.53162 19.1207 3.58788 19.1769C3.64414 19.2332 3.72044 19.2648 3.80001 19.2648H5.00001V20.7948H3.80001C3.32262 20.7948 2.86478 20.6052 2.52722 20.2676C2.18965 19.93 2.00001 19.4722 2.00001 18.9948V15.4998C1.58352 15.4765 1.19287 15.2905 0.912276 14.9818C0.63168 14.6732 0.483617 14.2666 0.500009 13.8498V9.88981C0.500009 9.18566 0.779731 8.51035 1.27764 8.01244C1.77555 7.51453 2.45086 7.23481 3.15501 7.23481Z"
		fill="currentColor"
	/>
</svg>